<svg xmlns="http://www.w3.org/2000/svg" viewBox="0 0 64 64" fill="none">
  <rect width="64" height="64" rx="18" fill="#FFFFFF"/>
  <rect x="4" y="4" width="56" height="56" rx="14" fill="#F5F5F4"/>
  <path
    d="M32 18C24.268 18 18 24.268 18 32C18 39.732 24.268 46 32 46C38.2132 46 43.4803 41.9509 45.3035 36.3514H37.7293C36.4676 37.3839 34.8548 38 33.098 38C29.0598 38 25.7862 34.7264 25.7862 30.6882C25.7862 26.65 29.0598 23.3764 33.098 23.3764C36.08 23.3764 38.6446 25.162 39.7821 27.721H47.4262C45.733 22.0758 39.9931 18 32 18Z"
    fill="#111827"
  />
  <circle cx="45.5" cy="21.5" r="4.5" fill="#F97316"/>
</svg>
